<?xml version="1.0" encoding="utf-8"?>
<!-- Generator: Adobe Illustrator 17.0.0, SVG Export Plug-In . SVG Version: 6.00 Build 0)  -->
<!DOCTYPE svg PUBLIC "-//W3C//DTD SVG 1.1//EN" "http://www.w3.org/Graphics/SVG/1.1/DTD/svg11.dtd">
<svg version="1.1" id="图层_1" xmlns="http://www.w3.org/2000/svg" xmlns:xlink="http://www.w3.org/1999/xlink" x="0px" y="0px"
	 width="16px" height="16px" viewBox="0 0 16 16" enable-background="new 0 0 16 16" xml:space="preserve">
<path fill="#D36222" d="M8.705,11.981C7.078,4.467,2.08,0.65,1.6,0.298L1.565,0.261L1.564,0.272c-0.001,0-0.004-0.003-0.004-0.003
	L1.505,0.792L0.101,13.065h2.862l0.69-6.04c2.804,4.074,3.418,8.506,3.418,8.506L8.705,11.981z"/>
<path fill="#D36222" d="M15.914,0.297c-0.317,0.175-3.845,2.195-7.325,7.478c0.279,0.755,0.668,1.913,0.901,3.021
	c0.871-1.454,1.918-2.713,2.89-3.719l-0.691,5.987h2.861l1.411-12.805L15.914,0.297z"/>
</svg>
