<?xml version="1.0" encoding="utf-8"?>
<!-- Generator: Adobe Illustrator 18.0.0, SVG Export Plug-In . SVG Version: 6.00 Build 0)  -->
<!DOCTYPE svg PUBLIC "-//W3C//DTD SVG 1.1//EN" "http://www.w3.org/Graphics/SVG/1.1/DTD/svg11.dtd">
<svg version="1.1" id="图层_1" xmlns="http://www.w3.org/2000/svg" xmlns:xlink="http://www.w3.org/1999/xlink"  x="0px" y="0px"
	 width="15px" height="154.5px"	 viewBox="0 0 15 154.5" enable-background="new 0 0 15 154.5" xml:space="preserve">
<rect x="1" y="114.1" fill="#B74B97" width="13" height="16"/>
<rect x="3" y="115.9" fill="#FFFFFF" width="9" height="11"/>
<rect x="6.5" y="127.9" fill="#FFFFFF" width="2" height="1"/>
<path fill="#7BA62C" d="M13,14c0,1.1-0.9,2-2,2H3c-1.1,0-2-0.9-2-2V2c0-1.1,0.9-2,2-2h8c1.1,0,2,0.9,2,2V14L13,14z"/>
<rect x="3" y="2.4" fill="#FFFFFF" width="8" height="11"/>
<rect x="3" y="14" fill="#FFFFFF" width="1.1" height="1.1"/>
<rect x="9.9" y="14" fill="#FFFFFF" width="1.1" height="1.1"/>
<rect x="5.8" y="14" fill="#FFFFFF" width="2.2" height="1.1"/>
<rect x="1" y="18.8" fill="#B74B97" width="12" height="16"/>
<rect x="3" y="20.8" fill="#FFFFFF" width="8" height="11"/>
<rect x="6" y="32.8" fill="#FFFFFF" width="2" height="1"/>
<path fill="#4669B2" d="M12.9,51.8c0,1.1-0.9,2-2,2H3c-1.1,0-2-0.9-2-2v-12c0-1.1,0.9-2,2-2h7.9c1.1,0,2,0.9,2,2V51.8L12.9,51.8z"/>
<path fill="#4669B2" d="M12.9,70.5c0,1.1-0.9,2-2,2H3c-1.1,0-2-0.9-2-2V58.6c0-1.1,0.9-2,2-2h7.9c1.1,0,2,0.9,2,2V70.5L12.9,70.5z"
	/>
<rect x="3" y="39.8" fill="#FFFFFF" width="7.9" height="10"/>
<rect x="6" y="50.8" fill="#FFFFFF" width="2" height="2"/>
<rect x="3" y="58.8" fill="#FFFFFF" width="8" height="8"/>
<rect x="3" y="68.4" fill="#FFFFFF" width="0.9" height="2.2"/>
<rect x="10" y="68.4" fill="#FFFFFF" width="0.9" height="2.2"/>
<rect x="5" y="67.7" fill="#FFFFFF" width="4" height="4"/>
<rect x="6" y="68.5" fill="#4669B2" width="2.3" height="2.3"/>
<g>
	<path fill="#4669B2" d="M15.1,90.2c0,1.1-0.9,2-2,2h-11c-1.1,0-2-0.9-2-2v-12c0-1.1,0.9-2,2-2h11c1.1,0,2,0.9,2,2V90.2z"/>
	<rect x="2.1" y="78.2" fill="#FFFFFF" width="11" height="11"/>
	<rect x="7.2" y="90.2" fill="#FFFFFF" width="1" height="1"/>
</g>
<g>
	<rect y="94.8" fill="#0281ED" width="15" height="16"/>
	<rect x="1.9" y="96.8" fill="#FFFFFF" width="11" height="12"/>
</g>
<g>
	<path fill="#B74B97" stroke="#B74B97" stroke-width="0.5" stroke-miterlimit="10" d="M4.3,124.4v-6H4.1c-0.2,0-0.3-0.2-0.4-0.4
		c0-0.2,0.1-0.3,0.4-0.4h0.8c0.2,0,0.3,0.1,0.3,0.2v6.5c0,0.3-0.2,0.4-0.5,0.4C4.4,124.8,4.3,124.7,4.3,124.4z"/>
	<path fill="#B74B97" stroke="#B74B97" stroke-width="0.5" stroke-miterlimit="10" d="M6.4,121.2c0.1-2.3,0.9-3.5,2.4-3.6
		c1.5,0.2,2.3,1.4,2.3,3.6c-0.1,2.2-0.9,3.4-2.3,3.6C7.3,124.7,6.5,123.5,6.4,121.2z M7.4,121.2c0,1.8,0.5,2.8,1.4,2.9
		c0.9-0.1,1.4-1,1.4-2.9c0-1.8-0.5-2.8-1.4-2.9C7.9,118.4,7.4,119.4,7.4,121.2z"/>
</g>
<path fill="#54B2FF" d="M13,140c0,0.1,0,0.1,0,0.2v0.1c0,0,0,0,0,0.1v0.1l0,0v0.1l0,0c0,0.1,0,0.1,0,0.1l0,0
	c-0.4,3.1-3.1,5.6-6.3,5.6c-2.1,0-4-1-5.2-2.6c0.5,0.4,1.2,0.7,1.9,0.7c1.2,0,2.2-0.7,2.6-1.7c-0.1,0.5-0.3,0.9-0.5,1.4l0,0
	c-0.1,0.2-0.1,0.4-0.1,0.6c0,0.6,0.5,1.2,1.2,1.2c0.1,0,0.3,0,0.4-0.1l0,0c1.1-0.4,1.9-1.4,1.9-2.6c0-0.7-0.3-1.4-0.8-1.9L8,141.2
	c-0.3,0.5-0.7,1-1.2,1.4c0.1-0.3,0.1-0.7,0.1-1c0-1.8-1.2-3.4-2.8-4c0.1,0,0.1,0,0.2,0c0.3,0,0.6,0,0.9,0.1l0,0
	c-1.2-1.1-2.5-2.1-3.8-3l0,0c1.3,0.9,3.6,2.1,4.2,2.2c0.2,0.1,0.6,0.1,1.2,0h0.1l0.1-0.1l0,0l0.1-0.1c0-0.1,0.1-0.1,0.1-0.1l0,0
	c0.7-1,1.8-1.6,3.1-1.6c0.5,0,1,0.1,1.5,0.3c-0.2,0.1-0.3,0.3-0.3,0.5c0,0.1,0,0.2,0.1,0.2l0,0c0,0,0,0.1,0.1,0.1c0,0,0,0,0,0.1
	c0,0,0,0.1,0.1,0.1c0,0,0,0,0,0.1c0,0,0,0.1,0.1,0.1c0,0,0,0,0,0.1c0,0,0,0.1,0.1,0.1c0,0,0,0,0,0.1c0,0,0,0.1,0.1,0.1
	c0,0,0,0,0,0.1c0,0,0,0.1,0.1,0.1c0,0,0,0,0,0.1c0,0,0,0.1,0.1,0.1c0,0,0,0,0,0.1v0.1c0,0,0,0,0,0.1v0.1c0,0,0,0,0,0.1v0.1
	c0,0,0,0,0,0.1v0.1v0.1v0.1v0.1v0.1v0.1v0.1v0.1v0.1v0.1v0.1v0.1v0.1v0.1v0.1v0.1v0.1v0.1v0.1v0.1v0.1v0.1v0.1v0.1v0.1
	c0,0,0,0,0,0.1C13,139.8,13,139.9,13,140L13,140L13,140z"/>
<path fill="none" d="M13,140c0,0.1,0,0.1,0,0.2v0.1c0,0,0,0,0,0.1v0.1l0,0v0.1l0,0c0,0.1,0,0.1,0,0.1l0,0c-0.4,3.1-3.1,5.6-6.3,5.6
	c-2.1,0-4-1-5.2-2.6c0.5,0.4,1.2,0.7,1.9,0.7c1.2,0,2.2-0.7,2.6-1.7c-0.1,0.5-0.3,0.9-0.5,1.4l0,0c-0.1,0.2-0.1,0.4-0.1,0.6
	c0,0.6,0.5,1.2,1.2,1.2c0.1,0,0.3,0,0.4-0.1l0,0c1.1-0.4,1.9-1.4,1.9-2.6c0-0.7-0.3-1.4-0.8-1.9L8,141.2c-0.3,0.5-0.7,1-1.2,1.4
	c0.1-0.3,0.1-0.7,0.1-1c0-1.8-1.2-3.4-2.8-4c0.1,0,0.1,0,0.2,0c0.3,0,0.6,0,0.9,0.1l0,0c-1.2-1.1-2.5-2.1-3.8-3l0,0
	c1.3,0.9,3.6,2.1,4.2,2.2c0.2,0.1,0.6,0.1,1.2,0h0.1l0.1-0.1l0,0l0.1-0.1c0-0.1,0.1-0.1,0.1-0.1l0,0c0.7-1,1.8-1.6,3.1-1.6
	c0.5,0,1,0.1,1.5,0.3c-0.2,0.1-0.3,0.3-0.3,0.5c0,0.1,0,0.2,0.1,0.2l0,0c0,0,0,0.1,0.1,0.1c0,0,0,0,0,0.1c0,0,0,0.1,0.1,0.1
	c0,0,0,0,0,0.1c0,0,0,0.1,0.1,0.1c0,0,0,0,0,0.1c0,0,0,0.1,0.1,0.1c0,0,0,0,0,0.1c0,0,0,0.1,0.1,0.1c0,0,0,0,0,0.1
	c0,0,0,0.1,0.1,0.1c0,0,0,0,0,0.1c0,0,0,0.1,0.1,0.1c0,0,0,0,0,0.1v0.1c0,0,0,0,0,0.1v0.1c0,0,0,0,0,0.1v0.1c0,0,0,0,0,0.1v0.1v0.1
	v0.1v0.1v0.1v0.1v0.1v0.1v0.1v0.1v0.1v0.1v0.1v0.1v0.1v0.1v0.1v0.1v0.1v0.1v0.1v0.1v0.1v0.1v0.1c0,0,0,0,0,0.1
	C13,139.8,13,139.9,13,140L13,140L13,140z"/>
<path fill="none" d="M13,140c0,0.1,0,0.1,0,0.2v0.1c0,0,0,0,0,0.1v0.1l0,0v0.1l0,0c0,0.1,0,0.1,0,0.1l0,0c-0.4,3.1-3.1,5.6-6.3,5.6
	c-2.1,0-4-1-5.2-2.6c0.5,0.4,1.2,0.7,1.9,0.7c1.2,0,2.2-0.7,2.6-1.7c-0.1,0.5-0.3,0.9-0.5,1.4l0,0c-0.1,0.2-0.1,0.4-0.1,0.6
	c0,0.6,0.5,1.2,1.2,1.2c0.1,0,0.3,0,0.4-0.1l0,0c1.1-0.4,1.9-1.4,1.9-2.6c0-0.7-0.3-1.4-0.8-1.9L8,141.2c-0.3,0.5-0.7,1-1.2,1.4
	c0.1-0.3,0.1-0.7,0.1-1c0-1.8-1.2-3.4-2.8-4c0.1,0,0.1,0,0.2,0c0.3,0,0.6,0,0.9,0.1l0,0c-1.2-1.1-2.5-2.1-3.8-3l0,0
	c1.3,0.9,3.6,2.1,4.2,2.2c0.2,0.1,0.6,0.1,1.2,0h0.1l0.1-0.1l0,0l0.1-0.1c0-0.1,0.1-0.1,0.1-0.1l0,0c0.7-1,1.8-1.6,3.1-1.6
	c0.5,0,1,0.1,1.5,0.3c-0.2,0.1-0.3,0.3-0.3,0.5c0,0.1,0,0.2,0.1,0.2l0,0c0,0,0,0.1,0.1,0.1c0,0,0,0,0,0.1c0,0,0,0.1,0.1,0.1
	c0,0,0,0,0,0.1c0,0,0,0.1,0.1,0.1c0,0,0,0,0,0.1c0,0,0,0.1,0.1,0.1c0,0,0,0,0,0.1c0,0,0,0.1,0.1,0.1c0,0,0,0,0,0.1
	c0,0,0,0.1,0.1,0.1c0,0,0,0,0,0.1c0,0,0,0.1,0.1,0.1c0,0,0,0,0,0.1v0.1c0,0,0,0,0,0.1v0.1c0,0,0,0,0,0.1v0.1c0,0,0,0,0,0.1v0.1v0.1
	v0.1v0.1v0.1v0.1v0.1v0.1v0.1v0.1v0.1v0.1v0.1v0.1v0.1v0.1v0.1v0.1v0.1v0.1v0.1v0.1v0.1v0.1v0.1c0,0,0,0,0,0.1
	C13,139.8,13,139.9,13,140L13,140L13,140z"/>
<g>
	<g>
		<defs>
			<path id="SVGID_1_" d="M13,140c0,0.1,0,0.1,0,0.2v0.1c0,0,0,0,0,0.1v0.1l0,0v0.1l0,0c0,0.1,0,0.1,0,0.1l0,0
				c-0.4,3.1-3.1,5.6-6.3,5.6c-2.1,0-4-1-5.2-2.6c0.5,0.4,1.2,0.7,1.9,0.7c1.2,0,2.2-0.7,2.6-1.7c-0.1,0.5-0.3,0.9-0.5,1.4l0,0
				c-0.1,0.2-0.1,0.4-0.1,0.6c0,0.6,0.5,1.2,1.2,1.2c0.1,0,0.3,0,0.4-0.1l0,0c1.1-0.4,1.9-1.4,1.9-2.6c0-0.7-0.3-1.4-0.8-1.9
				L8,141.2c-0.3,0.5-0.7,1-1.2,1.4c0.1-0.3,0.1-0.7,0.1-1c0-1.8-1.2-3.4-2.8-4c0.1,0,0.1,0,0.2,0c0.3,0,0.6,0,0.9,0.1l0,0
				c-1.2-1.1-2.5-2.1-3.8-3l0,0c1.3,0.9,3.6,2.1,4.2,2.2c0.2,0.1,0.6,0.1,1.2,0h0.1l0.1-0.1l0,0l0.1-0.1c0-0.1,0.1-0.1,0.1-0.1l0,0
				c0.7-1,1.8-1.6,3.1-1.6c0.5,0,1,0.1,1.5,0.3c-0.2,0.1-0.3,0.3-0.3,0.5c0,0.1,0,0.2,0.1,0.2l0,0c0,0,0,0.1,0.1,0.1c0,0,0,0,0,0.1
				c0,0,0,0.1,0.1,0.1c0,0,0,0,0,0.1c0,0,0,0.1,0.1,0.1c0,0,0,0,0,0.1c0,0,0,0.1,0.1,0.1c0,0,0,0,0,0.1c0,0,0,0.1,0.1,0.1
				c0,0,0,0,0,0.1c0,0,0,0.1,0.1,0.1c0,0,0,0,0,0.1c0,0,0,0.1,0.1,0.1c0,0,0,0,0,0.1v0.1c0,0,0,0,0,0.1v0.1c0,0,0,0,0,0.1v0.1
				c0,0,0,0,0,0.1v0.1v0.1v0.1v0.1v0.1v0.1v0.1v0.1v0.1v0.1v0.1v0.1v0.1v0.1v0.1v0.1v0.1v0.1v0.1v0.1v0.1v0.1v0.1v0.1v0.1
				c0,0,0,0,0,0.1C13,139.8,13,139.9,13,140L13,140L13,140z"/>
		</defs>
		<clipPath id="SVGID_2_">
			<use xlink:href="#SVGID_1_"  overflow="visible"/>
		</clipPath>
		<path clip-path="url(#SVGID_2_)" fill="#2B96EE" d="M6.5,136.9c2.6,0,4.8,2.1,4.8,4.8c0,2.6-2.1,4.8-4.8,4.8
			c-1.8,0-4.2,0.1-6.3-2.5c-0.5-0.6,1.5-1.5,1.5-2.3c0-2-3-6.4-1.3-7.1C1,134.3,5.8,136.9,6.5,136.9L6.5,136.9z"/>
	</g>
</g>
<path fill="#1B75CE" d="M8,141.2c0,0,0.2-0.4,0.3-0.7c0,0,1,0.7,1.1,2.2S9,145.3,7,145.8c0,0,1.9-0.6,1.9-2.8
	C8.9,143,8.8,142,8,141.2z"/>
<path fill="#54B2FF" d="M11.7,136.1c0,0,1.6,1.3,1.3,4.6l-1.1,0.9l-0.9-5.8L11.7,136.1z"/>
</svg>
